<?xml version="1.0" encoding="UTF-8" standalone="no"?>
<!DOCTYPE svg PUBLIC "-//W3C//DTD SVG 1.1//EN"
 "http://www.w3.org/Graphics/SVG/1.1/DTD/svg11.dtd">
<!-- Generated by graphviz version 12.0.0 (20240803.0821)
 -->
<!-- Title: Immunopipe Pages: 1 -->
<svg width="431pt" height="591pt"
 viewBox="0.00 0.00 431.00 590.50" xmlns="http://www.w3.org/2000/svg" xmlns:xlink="http://www.w3.org/1999/xlink">
<g id="graph0" class="graph" transform="scale(1 1) rotate(0) translate(4 586.5)">
<title>Immunopipe</title>
<polygon fill="white" stroke="none" points="-4,4 -4,-586.5 427,-586.5 427,4 -4,4"/>
<text text-anchor="middle" x="211.5" y="-565.2" font-family="Helvetica,sans-Serif" font-size="14.00">Immunopipe</text>
<text text-anchor="middle" x="211.5" y="-547.95" font-family="Helvetica,sans-Serif" font-size="14.00"> </text>
<!-- ModuleScoreCalculator -->
<g id="node1" class="node">
<title>ModuleScoreCalculator</title>
<g id="a_node1"><a xlink:title="Calculate the module scores for each cell">
<path fill="none" stroke="black" d="M271.5,-252C271.5,-252 141.5,-252 141.5,-252 135.5,-252 129.5,-246 129.5,-240 129.5,-240 129.5,-228 129.5,-228 129.5,-222 135.5,-216 141.5,-216 141.5,-216 271.5,-216 271.5,-216 277.5,-216 283.5,-222 283.5,-228 283.5,-228 283.5,-240 283.5,-240 283.5,-246 277.5,-252 271.5,-252"/>
<text text-anchor="middle" x="206.5" y="-229.72" font-family="Helvetica,sans-Serif" font-size="12.00">ModuleScoreCalculator</text>
</a>
</g>
</g>
<!-- SeuratClustering -->
<g id="node6" class="node">
<title>SeuratClustering</title>
<g id="a_node6"><a xlink:title="Cluster all T cells or selected T cells selected by `TCellSelection`.">
<path fill="none" stroke="black" d="M252.38,-180C252.38,-180 160.62,-180 160.62,-180 154.62,-180 148.62,-174 148.62,-168 148.62,-168 148.62,-156 148.62,-156 148.62,-150 154.62,-144 160.62,-144 160.62,-144 252.38,-144 252.38,-144 258.38,-144 264.38,-150 264.38,-156 264.38,-156 264.38,-168 264.38,-168 264.38,-174 258.38,-180 252.38,-180"/>
<text text-anchor="middle" x="206.5" y="-157.72" font-family="Helvetica,sans-Serif" font-size="12.00">SeuratClustering</text>
</a>
</g>
</g>
<!-- ModuleScoreCalculator&#45;&gt;SeuratClustering -->
<g id="edge1" class="edge">
<title>ModuleScoreCalculator&#45;&gt;SeuratClustering</title>
<path fill="none" stroke="black" d="M206.5,-215.7C206.5,-207.81 206.5,-198.3 206.5,-189.55"/>
<polygon fill="black" stroke="black" points="209.3,-189.62 206.5,-181.62 203.7,-189.62 209.3,-189.62"/>
</g>
<!-- IntegratingTCR -->
<g id="node2" class="node">
<title>IntegratingTCR</title>
<g id="a_node2"><a xlink:title="Attach TCR clone information as meta columns to Seurat object">
<path fill="none" stroke="black" d="M164.12,-108C164.12,-108 82.88,-108 82.88,-108 76.88,-108 70.88,-102 70.88,-96 70.88,-96 70.88,-84 70.88,-84 70.88,-78 76.88,-72 82.88,-72 82.88,-72 164.12,-72 164.12,-72 170.12,-72 176.12,-78 176.12,-84 176.12,-84 176.12,-96 176.12,-96 176.12,-102 170.12,-108 164.12,-108"/>
<text text-anchor="middle" x="123.5" y="-85.72" font-family="Helvetica,sans-Serif" font-size="12.00">IntegratingTCR</text>
</a>
</g>
</g>
<!-- Immunarch -->
<g id="node7" class="node">
<title>Immunarch</title>
<g id="a_node7"><a xlink:title="Exploration of Single&#45;cell and Bulk T&#45;cell/Antibody Immune Repertoires">
<polygon fill="none" stroke="black" points="85,-36 0,-36 0,0 85,0 85,-36"/>
<text text-anchor="middle" x="42.5" y="-13.72" font-family="Helvetica,sans-Serif" font-size="12.00">Immunarch</text>
</a>
</g>
</g>
<!-- IntegratingTCR&#45;&gt;Immunarch -->
<g id="edge10" class="edge">
<title>IntegratingTCR&#45;&gt;Immunarch</title>
<path fill="none" stroke="black" d="M103.48,-71.7C93.26,-62.86 80.67,-51.99 69.59,-42.41"/>
<polygon fill="black" stroke="black" points="71.6,-40.45 63.72,-37.34 67.94,-44.69 71.6,-40.45"/>
</g>
<!-- SeuratClusterStats -->
<g id="node9" class="node">
<title>SeuratClusterStats</title>
<polygon fill="none" stroke="black" points="230.38,-36 102.62,-36 102.62,0 230.38,0 230.38,-36"/>
<text text-anchor="middle" x="166.5" y="-13.72" font-family="Helvetica,sans-Serif" font-size="12.00">SeuratClusterStats</text>
</g>
<!-- IntegratingTCR&#45;&gt;SeuratClusterStats -->
<g id="edge8" class="edge">
<title>IntegratingTCR&#45;&gt;SeuratClusterStats</title>
<path fill="none" stroke="black" d="M134.13,-71.7C139.23,-63.39 145.44,-53.28 151.06,-44.14"/>
<polygon fill="black" stroke="black" points="153.4,-45.68 155.2,-37.39 148.63,-42.75 153.4,-45.68"/>
</g>
<!-- ImmunarchLoading -->
<g id="node3" class="node">
<title>ImmunarchLoading</title>
<g id="a_node3"><a xlink:title="Immuarch &#45; Loading data">
<path fill="none" stroke="black" d="M155.62,-396C155.62,-396 47.38,-396 47.38,-396 41.38,-396 35.38,-390 35.38,-384 35.38,-384 35.38,-372 35.38,-372 35.38,-366 41.38,-360 47.38,-360 47.38,-360 155.62,-360 155.62,-360 161.62,-360 167.62,-366 167.62,-372 167.62,-372 167.62,-384 167.62,-384 167.62,-390 161.62,-396 155.62,-396"/>
<text text-anchor="middle" x="101.5" y="-373.73" font-family="Helvetica,sans-Serif" font-size="12.00">ImmunarchLoading</text>
</a>
</g>
</g>
<!-- ImmunarchLoading&#45;&gt;IntegratingTCR -->
<g id="edge9" class="edge">
<title>ImmunarchLoading&#45;&gt;IntegratingTCR</title>
<path fill="none" stroke="black" d="M102.84,-359.54C106.56,-311.16 117.03,-175.15 121.47,-117.43"/>
<polygon fill="black" stroke="black" points="124.24,-117.93 122.06,-109.74 118.65,-117.5 124.24,-117.93"/>
</g>
<!-- TCellSelection -->
<g id="node4" class="node">
<title>TCellSelection</title>
<path fill="none" stroke="black" d="M230.12,-324C230.12,-324 154.88,-324 154.88,-324 148.88,-324 142.88,-318 142.88,-312 142.88,-312 142.88,-300 142.88,-300 142.88,-294 148.88,-288 154.88,-288 154.88,-288 230.12,-288 230.12,-288 236.12,-288 242.12,-294 242.12,-300 242.12,-300 242.12,-312 242.12,-312 242.12,-318 236.12,-324 230.12,-324"/>
<text text-anchor="middle" x="192.5" y="-301.73" font-family="Helvetica,sans-Serif" font-size="12.00">TCellSelection</text>
</g>
<!-- ImmunarchLoading&#45;&gt;TCellSelection -->
<g id="edge4" class="edge">
<title>ImmunarchLoading&#45;&gt;TCellSelection</title>
<path fill="none" stroke="black" d="M123.99,-359.7C135.59,-350.78 149.89,-339.78 162.42,-330.14"/>
<polygon fill="black" stroke="black" points="164.12,-332.37 168.75,-325.27 160.7,-327.93 164.12,-332.37"/>
</g>
<!-- ImmunarchLoading&#45;&gt;Immunarch -->
<g id="edge14" class="edge">
<title>ImmunarchLoading&#45;&gt;Immunarch</title>
<path fill="none" stroke="black" d="M88.99,-359.59C71.67,-333.73 42.5,-283.05 42.5,-235 42.5,-235 42.5,-235 42.5,-161 42.5,-120.86 42.5,-74.35 42.5,-45.8"/>
<polygon fill="black" stroke="black" points="45.3,-46 42.5,-38 39.7,-46 45.3,-46"/>
</g>
<!-- TCellSelection&#45;&gt;ModuleScoreCalculator -->
<g id="edge7" class="edge">
<title>TCellSelection&#45;&gt;ModuleScoreCalculator</title>
<path fill="none" stroke="black" d="M195.96,-287.7C197.55,-279.73 199.48,-270.1 201.25,-261.26"/>
<polygon fill="black" stroke="black" points="203.96,-261.98 202.78,-253.59 198.47,-260.88 203.96,-261.98"/>
</g>
<!-- ClusterMarkers -->
<g id="node5" class="node">
<title>ClusterMarkers</title>
<g id="a_node5"><a xlink:title="Markers for clusters of all or selected T cells.">
<polygon fill="none" stroke="black" points="300.88,-108 194.12,-108 194.12,-72 300.88,-72 300.88,-108"/>
<text text-anchor="middle" x="247.5" y="-85.72" font-family="Helvetica,sans-Serif" font-size="12.00">ClusterMarkers</text>
</a>
</g>
</g>
<!-- SeuratClustering&#45;&gt;IntegratingTCR -->
<g id="edge13" class="edge">
<title>SeuratClustering&#45;&gt;IntegratingTCR</title>
<path fill="none" stroke="black" d="M185.98,-143.7C175.51,-134.86 162.61,-123.99 151.26,-114.41"/>
<polygon fill="black" stroke="black" points="153.15,-112.34 145.23,-109.32 149.54,-116.62 153.15,-112.34"/>
</g>
<!-- SeuratClustering&#45;&gt;ClusterMarkers -->
<g id="edge11" class="edge">
<title>SeuratClustering&#45;&gt;ClusterMarkers</title>
<path fill="none" stroke="black" d="M216.63,-143.7C221.5,-135.39 227.42,-125.28 232.77,-116.14"/>
<polygon fill="black" stroke="black" points="235.09,-117.73 236.72,-109.41 230.26,-114.9 235.09,-117.73"/>
</g>
<!-- SeuratClusteringOfAllCells -->
<g id="node8" class="node">
<title>SeuratClusteringOfAllCells</title>
<g id="a_node8"><a xlink:title="Cluster all cells, including T cells and non&#45;T cells using Seurat">
<path fill="none" stroke="black" d="M345.5,-396C345.5,-396 197.5,-396 197.5,-396 191.5,-396 185.5,-390 185.5,-384 185.5,-384 185.5,-372 185.5,-372 185.5,-366 191.5,-360 197.5,-360 197.5,-360 345.5,-360 345.5,-360 351.5,-360 357.5,-366 357.5,-372 357.5,-372 357.5,-384 357.5,-384 357.5,-390 351.5,-396 345.5,-396"/>
<text text-anchor="middle" x="271.5" y="-373.73" font-family="Helvetica,sans-Serif" font-size="12.00">SeuratClusteringOfAllCells</text>
</a>
</g>
</g>
<!-- SeuratClusteringOfAllCells&#45;&gt;TCellSelection -->
<g id="edge2" class="edge">
<title>SeuratClusteringOfAllCells&#45;&gt;TCellSelection</title>
<path fill="none" stroke="black" d="M251.97,-359.7C242,-350.86 229.73,-339.99 218.93,-330.41"/>
<polygon fill="black" stroke="black" points="221.05,-328.56 213.21,-325.35 217.34,-332.75 221.05,-328.56"/>
</g>
<!-- ClusterMarkersOfAllCells -->
<g id="node12" class="node">
<title>ClusterMarkersOfAllCells</title>
<g id="a_node12"><a xlink:title="Markers for clusters of all cells.">
<polygon fill="none" stroke="black" points="423,-324 260,-324 260,-288 423,-288 423,-324"/>
<text text-anchor="middle" x="341.5" y="-301.73" font-family="Helvetica,sans-Serif" font-size="12.00">ClusterMarkersOfAllCells</text>
</a>
</g>
</g>
<!-- SeuratClusteringOfAllCells&#45;&gt;ClusterMarkersOfAllCells -->
<g id="edge3" class="edge">
<title>SeuratClusteringOfAllCells&#45;&gt;ClusterMarkersOfAllCells</title>
<path fill="none" stroke="black" d="M288.8,-359.7C297.53,-350.97 308.26,-340.24 317.75,-330.75"/>
<polygon fill="black" stroke="black" points="319.65,-332.81 323.33,-325.17 315.69,-328.85 319.65,-332.81"/>
</g>
<!-- SeuratPreparing -->
<g id="node10" class="node">
<title>SeuratPreparing</title>
<g id="a_node10"><a xlink:title="Load, prepare and apply QC to data, using `Seurat`">
<path fill="none" stroke="black" d="M293.88,-468C293.88,-468 205.12,-468 205.12,-468 199.12,-468 193.12,-462 193.12,-456 193.12,-456 193.12,-444 193.12,-444 193.12,-438 199.12,-432 205.12,-432 205.12,-432 293.88,-432 293.88,-432 299.88,-432 305.88,-438 305.88,-444 305.88,-444 305.88,-456 305.88,-456 305.88,-462 299.88,-468 293.88,-468"/>
<text text-anchor="middle" x="249.5" y="-445.73" font-family="Helvetica,sans-Serif" font-size="12.00">SeuratPreparing</text>
</a>
</g>
</g>
<!-- SeuratPreparing&#45;&gt;SeuratClusteringOfAllCells -->
<g id="edge6" class="edge">
<title>SeuratPreparing&#45;&gt;SeuratClusteringOfAllCells</title>
<path fill="none" stroke="black" d="M254.94,-431.7C257.47,-423.64 260.53,-413.89 263.33,-404.98"/>
<polygon fill="black" stroke="black" points="265.94,-406.02 265.67,-397.55 260.6,-404.34 265.94,-406.02"/>
</g>
<!-- SampleInfo -->
<g id="node11" class="node">
<title>SampleInfo</title>
<g id="a_node11"><a xlink:title="List sample information and perform statistics">
<polygon fill="none" stroke="black" points="186.5,-540 110.72,-522 186.5,-504 262.28,-522 186.5,-540"/>
<text text-anchor="middle" x="186.5" y="-517.73" font-family="Helvetica,sans-Serif" font-size="12.00">SampleInfo</text>
</a>
</g>
</g>
<!-- SampleInfo&#45;&gt;ImmunarchLoading -->
<g id="edge5" class="edge">
<title>SampleInfo&#45;&gt;ImmunarchLoading</title>
<path fill="none" stroke="black" d="M177.4,-505.8C162.84,-481.48 134.14,-433.53 116.51,-404.07"/>
<polygon fill="black" stroke="black" points="119.14,-403.01 112.63,-397.59 114.33,-405.89 119.14,-403.01"/>
</g>
<!-- SampleInfo&#45;&gt;SeuratPreparing -->
<g id="edge12" class="edge">
<title>SampleInfo&#45;&gt;SeuratPreparing</title>
<path fill="none" stroke="black" d="M199.25,-506.83C207.37,-497.81 218.11,-485.88 227.57,-475.37"/>
<polygon fill="black" stroke="black" points="229.59,-477.31 232.86,-469.49 225.42,-473.57 229.59,-477.31"/>
</g>
</g>
</svg>
