<?xml version="1.0" encoding="UTF-8" standalone="no"?>
<!DOCTYPE svg PUBLIC "-//W3C//DTD SVG 1.1//EN"
 "http://www.w3.org/Graphics/SVG/1.1/DTD/svg11.dtd">
<!-- Generated by graphviz version 7.0.5 (20221231.0122)
 -->
<!-- Title: Immunopipe Pages: 1 -->
<svg width="435pt" height="586pt"
 viewBox="0.00 0.00 435.00 586.00" xmlns="http://www.w3.org/2000/svg" xmlns:xlink="http://www.w3.org/1999/xlink">
<g id="graph0" class="graph" transform="scale(1 1) rotate(0) translate(4 582)">
<title>Immunopipe</title>
<polygon fill="white" stroke="none" points="-4,4 -4,-582 431,-582 431,4 -4,4"/>
<text text-anchor="middle" x="213.5" y="-562.8" font-family="Helvetica,sans-Serif" font-size="14.00">Immunopipe</text>
<text text-anchor="middle" x="213.5" y="-547.8" font-family="Helvetica,sans-Serif" font-size="14.00"> </text>
<!-- Immunarch -->
<g id="node1" class="node">
<title>Immunarch</title>
<g id="a_node1"><a xlink:title="Exploration of Single&#45;cell and Bulk T&#45;cell/Antibody Immune Repertoires">
<polygon fill="none" stroke="black" points="427,-36 341,-36 341,0 427,0 427,-36"/>
<text text-anchor="middle" x="384" y="-14.9" font-family="Helvetica,sans-Serif" font-size="12.00">Immunarch</text>
</a>
</g>
</g>
<!-- SeuratPreparing -->
<g id="node2" class="node">
<title>SeuratPreparing</title>
<g id="a_node2"><a xlink:title="Load, prepare and apply QC to data, using `Seurat`">
<path fill="none" stroke="black" d="M240.5,-468C240.5,-468 151.5,-468 151.5,-468 145.5,-468 139.5,-462 139.5,-456 139.5,-456 139.5,-444 139.5,-444 139.5,-438 145.5,-432 151.5,-432 151.5,-432 240.5,-432 240.5,-432 246.5,-432 252.5,-438 252.5,-444 252.5,-444 252.5,-456 252.5,-456 252.5,-462 246.5,-468 240.5,-468"/>
<text text-anchor="middle" x="196" y="-446.9" font-family="Helvetica,sans-Serif" font-size="12.00">SeuratPreparing</text>
</a>
</g>
</g>
<!-- SeuratClusteringOfAllCells -->
<g id="node10" class="node">
<title>SeuratClusteringOfAllCells</title>
<g id="a_node10"><a xlink:title="Cluster all cells, including T cells and non&#45;T cells using Seurat">
<path fill="none" stroke="black" d="M227.5,-396C227.5,-396 78.5,-396 78.5,-396 72.5,-396 66.5,-390 66.5,-384 66.5,-384 66.5,-372 66.5,-372 66.5,-366 72.5,-360 78.5,-360 78.5,-360 227.5,-360 227.5,-360 233.5,-360 239.5,-366 239.5,-372 239.5,-372 239.5,-384 239.5,-384 239.5,-390 233.5,-396 227.5,-396"/>
<text text-anchor="middle" x="153" y="-374.9" font-family="Helvetica,sans-Serif" font-size="12.00">SeuratClusteringOfAllCells</text>
</a>
</g>
</g>
<!-- SeuratPreparing&#45;&gt;SeuratClusteringOfAllCells -->
<g id="edge11" class="edge">
<title>SeuratPreparing&#45;&gt;SeuratClusteringOfAllCells</title>
<path fill="none" stroke="black" d="M185.37,-431.7C180.27,-423.39 174.06,-413.28 168.44,-404.14"/>
<polygon fill="black" stroke="black" points="170.87,-402.75 164.3,-397.39 166.1,-405.68 170.87,-402.75"/>
</g>
<!-- SampleInfo -->
<g id="node3" class="node">
<title>SampleInfo</title>
<g id="a_node3"><a xlink:title="List sample information and perform statistics">
<polygon fill="none" stroke="black" points="238,-540 164,-522 238,-504 312,-522 238,-540"/>
<text text-anchor="middle" x="238" y="-518.9" font-family="Helvetica,sans-Serif" font-size="12.00">SampleInfo</text>
</a>
</g>
</g>
<!-- SampleInfo&#45;&gt;SeuratPreparing -->
<g id="edge12" class="edge">
<title>SampleInfo&#45;&gt;SeuratPreparing</title>
<path fill="none" stroke="black" d="M228.89,-505.81C223.68,-497.14 217.03,-486.05 211.07,-476.12"/>
<polygon fill="black" stroke="black" points="213.57,-474.84 207.05,-469.42 208.77,-477.73 213.57,-474.84"/>
</g>
<!-- ImmunarchLoading -->
<g id="node11" class="node">
<title>ImmunarchLoading</title>
<g id="a_node11"><a xlink:title="Immuarch &#45; Loading data">
<path fill="none" stroke="black" d="M378.5,-396C378.5,-396 269.5,-396 269.5,-396 263.5,-396 257.5,-390 257.5,-384 257.5,-384 257.5,-372 257.5,-372 257.5,-366 263.5,-360 269.5,-360 269.5,-360 378.5,-360 378.5,-360 384.5,-360 390.5,-366 390.5,-372 390.5,-372 390.5,-384 390.5,-384 390.5,-390 384.5,-396 378.5,-396"/>
<text text-anchor="middle" x="324" y="-374.9" font-family="Helvetica,sans-Serif" font-size="12.00">ImmunarchLoading</text>
</a>
</g>
</g>
<!-- SampleInfo&#45;&gt;ImmunarchLoading -->
<g id="edge13" class="edge">
<title>SampleInfo&#45;&gt;ImmunarchLoading</title>
<path fill="none" stroke="black" d="M247.2,-505.8C261.94,-481.48 290.97,-433.53 308.82,-404.07"/>
<polygon fill="black" stroke="black" points="311,-405.88 312.75,-397.58 306.21,-402.97 311,-405.88"/>
</g>
<!-- SeuratClustering -->
<g id="node4" class="node">
<title>SeuratClustering</title>
<g id="a_node4"><a xlink:title="Cluster all T cells or selected T cells selected by `TCellSelection`.">
<path fill="none" stroke="black" d="M264,-180C264,-180 172,-180 172,-180 166,-180 160,-174 160,-168 160,-168 160,-156 160,-156 160,-150 166,-144 172,-144 172,-144 264,-144 264,-144 270,-144 276,-150 276,-156 276,-156 276,-168 276,-168 276,-174 270,-180 264,-180"/>
<text text-anchor="middle" x="218" y="-158.9" font-family="Helvetica,sans-Serif" font-size="12.00">SeuratClustering</text>
</a>
</g>
</g>
<!-- ClusterMarkers -->
<g id="node5" class="node">
<title>ClusterMarkers</title>
<g id="a_node5"><a xlink:title="Markers for clusters of all or selected T cells.">
<polygon fill="none" stroke="black" points="231.5,-108 124.5,-108 124.5,-72 231.5,-72 231.5,-108"/>
<text text-anchor="middle" x="178" y="-86.9" font-family="Helvetica,sans-Serif" font-size="12.00">ClusterMarkers</text>
</a>
</g>
</g>
<!-- SeuratClustering&#45;&gt;ClusterMarkers -->
<g id="edge10" class="edge">
<title>SeuratClustering&#45;&gt;ClusterMarkers</title>
<path fill="none" stroke="black" d="M208.11,-143.7C203.37,-135.39 197.59,-125.28 192.37,-116.14"/>
<polygon fill="black" stroke="black" points="194.93,-114.98 188.52,-109.42 190.06,-117.75 194.93,-114.98"/>
</g>
<!-- IntegratingTCR -->
<g id="node8" class="node">
<title>IntegratingTCR</title>
<g id="a_node8"><a xlink:title="Attach TCR clone information as meta columns to Seurat object">
<path fill="none" stroke="black" d="M344,-108C344,-108 262,-108 262,-108 256,-108 250,-102 250,-96 250,-96 250,-84 250,-84 250,-78 256,-72 262,-72 262,-72 344,-72 344,-72 350,-72 356,-78 356,-84 356,-84 356,-96 356,-96 356,-102 350,-108 344,-108"/>
<text text-anchor="middle" x="303" y="-86.9" font-family="Helvetica,sans-Serif" font-size="12.00">IntegratingTCR</text>
</a>
</g>
</g>
<!-- SeuratClustering&#45;&gt;IntegratingTCR -->
<g id="edge5" class="edge">
<title>SeuratClustering&#45;&gt;IntegratingTCR</title>
<path fill="none" stroke="black" d="M239.01,-143.7C249.84,-134.78 263.2,-123.78 274.9,-114.14"/>
<polygon fill="black" stroke="black" points="276.37,-116.56 280.77,-109.31 272.81,-112.23 276.37,-116.56"/>
</g>
<!-- ModuleScoreCalculator -->
<g id="node6" class="node">
<title>ModuleScoreCalculator</title>
<g id="a_node6"><a xlink:title="Calculate the module scores for each cell">
<path fill="none" stroke="black" d="M283.5,-252C283.5,-252 152.5,-252 152.5,-252 146.5,-252 140.5,-246 140.5,-240 140.5,-240 140.5,-228 140.5,-228 140.5,-222 146.5,-216 152.5,-216 152.5,-216 283.5,-216 283.5,-216 289.5,-216 295.5,-222 295.5,-228 295.5,-228 295.5,-240 295.5,-240 295.5,-246 289.5,-252 283.5,-252"/>
<text text-anchor="middle" x="218" y="-230.9" font-family="Helvetica,sans-Serif" font-size="12.00">ModuleScoreCalculator</text>
</a>
</g>
</g>
<!-- ModuleScoreCalculator&#45;&gt;SeuratClustering -->
<g id="edge7" class="edge">
<title>ModuleScoreCalculator&#45;&gt;SeuratClustering</title>
<path fill="none" stroke="black" d="M218,-215.7C218,-207.81 218,-198.3 218,-189.55"/>
<polygon fill="black" stroke="black" points="220.8,-189.62 218,-181.62 215.2,-189.62 220.8,-189.62"/>
</g>
<!-- SeuratClusterStats -->
<g id="node7" class="node">
<title>SeuratClusterStats</title>
<polygon fill="none" stroke="black" points="323,-36 195,-36 195,0 323,0 323,-36"/>
<text text-anchor="middle" x="259" y="-14.9" font-family="Helvetica,sans-Serif" font-size="12.00">SeuratClusterStats</text>
</g>
<!-- IntegratingTCR&#45;&gt;Immunarch -->
<g id="edge14" class="edge">
<title>IntegratingTCR&#45;&gt;Immunarch</title>
<path fill="none" stroke="black" d="M323.02,-71.7C333.24,-62.86 345.83,-51.99 356.91,-42.41"/>
<polygon fill="black" stroke="black" points="358.56,-44.69 362.78,-37.34 354.9,-40.45 358.56,-44.69"/>
</g>
<!-- IntegratingTCR&#45;&gt;SeuratClusterStats -->
<g id="edge6" class="edge">
<title>IntegratingTCR&#45;&gt;SeuratClusterStats</title>
<path fill="none" stroke="black" d="M292.12,-71.7C286.9,-63.39 280.55,-53.28 274.8,-44.14"/>
<polygon fill="black" stroke="black" points="277.18,-42.67 270.56,-37.39 272.44,-45.65 277.18,-42.67"/>
</g>
<!-- ClusterMarkersOfAllCells -->
<g id="node9" class="node">
<title>ClusterMarkersOfAllCells</title>
<g id="a_node9"><a xlink:title="Markers for clusters of all cells.">
<polygon fill="none" stroke="black" points="164,-324 0,-324 0,-288 164,-288 164,-324"/>
<text text-anchor="middle" x="82" y="-302.9" font-family="Helvetica,sans-Serif" font-size="12.00">ClusterMarkersOfAllCells</text>
</a>
</g>
</g>
<!-- SeuratClusteringOfAllCells&#45;&gt;ClusterMarkersOfAllCells -->
<g id="edge8" class="edge">
<title>SeuratClusteringOfAllCells&#45;&gt;ClusterMarkersOfAllCells</title>
<path fill="none" stroke="black" d="M135.45,-359.7C126.59,-350.97 115.72,-340.24 106.09,-330.75"/>
<polygon fill="black" stroke="black" points="108.09,-328.79 100.43,-325.17 104.16,-332.78 108.09,-328.79"/>
</g>
<!-- TCellSelection -->
<g id="node12" class="node">
<title>TCellSelection</title>
<path fill="none" stroke="black" d="M270,-324C270,-324 194,-324 194,-324 188,-324 182,-318 182,-312 182,-312 182,-300 182,-300 182,-294 188,-288 194,-288 194,-288 270,-288 270,-288 276,-288 282,-294 282,-300 282,-300 282,-312 282,-312 282,-318 276,-324 270,-324"/>
<text text-anchor="middle" x="232" y="-302.9" font-family="Helvetica,sans-Serif" font-size="12.00">TCellSelection</text>
</g>
<!-- SeuratClusteringOfAllCells&#45;&gt;TCellSelection -->
<g id="edge1" class="edge">
<title>SeuratClusteringOfAllCells&#45;&gt;TCellSelection</title>
<path fill="none" stroke="black" d="M172.53,-359.7C182.5,-350.86 194.77,-339.99 205.57,-330.41"/>
<polygon fill="black" stroke="black" points="207.16,-332.75 211.29,-325.35 203.45,-328.56 207.16,-332.75"/>
</g>
<!-- ImmunarchLoading&#45;&gt;Immunarch -->
<g id="edge3" class="edge">
<title>ImmunarchLoading&#45;&gt;Immunarch</title>
<path fill="none" stroke="black" d="M336.72,-359.62C354.34,-333.81 384,-283.17 384,-235 384,-235 384,-235 384,-161 384,-120.86 384,-74.35 384,-45.8"/>
<polygon fill="black" stroke="black" points="386.8,-46 384,-38 381.2,-46 386.8,-46"/>
</g>
<!-- ImmunarchLoading&#45;&gt;IntegratingTCR -->
<g id="edge2" class="edge">
<title>ImmunarchLoading&#45;&gt;IntegratingTCR</title>
<path fill="none" stroke="black" d="M322.72,-359.54C319.17,-311.16 309.18,-175.15 304.94,-117.43"/>
<polygon fill="black" stroke="black" points="307.75,-117.51 304.38,-109.74 302.17,-117.92 307.75,-117.51"/>
</g>
<!-- ImmunarchLoading&#45;&gt;TCellSelection -->
<g id="edge4" class="edge">
<title>ImmunarchLoading&#45;&gt;TCellSelection</title>
<path fill="none" stroke="black" d="M301.26,-359.7C289.43,-350.69 274.81,-339.57 262.06,-329.87"/>
<polygon fill="black" stroke="black" points="264.07,-327.88 256,-325.26 260.67,-332.34 264.07,-327.88"/>
</g>
<!-- TCellSelection&#45;&gt;ModuleScoreCalculator -->
<g id="edge9" class="edge">
<title>TCellSelection&#45;&gt;ModuleScoreCalculator</title>
<path fill="none" stroke="black" d="M228.54,-287.7C226.95,-279.73 225.02,-270.1 223.25,-261.26"/>
<polygon fill="black" stroke="black" points="226.03,-260.88 221.72,-253.59 220.54,-261.98 226.03,-260.88"/>
</g>
</g>
</svg>
