<?xml version="1.0" encoding="UTF-8" standalone="no"?>
<!DOCTYPE svg PUBLIC "-//W3C//DTD SVG 1.1//EN"
 "http://www.w3.org/Graphics/SVG/1.1/DTD/svg11.dtd">
<!-- Generated by graphviz version 14.1.2 (20260126.1125)
 -->
<!-- Title: Immunopipe Pages: 1 -->
<svg width="443pt" height="588pt"
 viewBox="0.00 0.00 443.00 588.00" xmlns="http://www.w3.org/2000/svg" xmlns:xlink="http://www.w3.org/1999/xlink">
<g id="graph0" class="graph" transform="scale(1 1) rotate(0) translate(4 583.5)">
<title>Immunopipe</title>
<polygon fill="white" stroke="none" points="-4,4 -4,-583.5 438.75,-583.5 438.75,4 -4,4"/>
<text xml:space="preserve" text-anchor="middle" x="217.38" y="-562.2" font-family="Helvetica,sans-Serif" font-size="14.00">Immunopipe</text>
<text xml:space="preserve" text-anchor="middle" x="217.38" y="-546.45" font-family="Helvetica,sans-Serif" font-size="14.00"> </text>
<!-- SeuratClusterStats -->
<g id="node1" class="node">
<title>SeuratClusterStats</title>
<polygon fill="none" stroke="black" points="116.5,-36 0,-36 0,0 116.5,0 116.5,-36"/>
<text xml:space="preserve" text-anchor="middle" x="58.25" y="-13.72" font-family="Helvetica,sans-Serif" font-size="12.00">SeuratClusterStats</text>
</g>
<!-- SeuratClustering -->
<g id="node2" class="node">
<title>SeuratClustering</title>
<g id="a_node2"><a xlink:title="Cluster all cells or selected T/B cells selected by `TOrBCellSelection`.">
<path fill="none" stroke="black" d="M255.25,-180C255.25,-180 173.25,-180 173.25,-180 167.25,-180 161.25,-174 161.25,-168 161.25,-168 161.25,-156 161.25,-156 161.25,-150 167.25,-144 173.25,-144 173.25,-144 255.25,-144 255.25,-144 261.25,-144 267.25,-150 267.25,-156 267.25,-156 267.25,-168 267.25,-168 267.25,-174 261.25,-180 255.25,-180"/>
<text xml:space="preserve" text-anchor="middle" x="214.25" y="-157.72" font-family="Helvetica,sans-Serif" font-size="12.00">SeuratClustering</text>
</a>
</g>
</g>
<!-- ScRepCombiningExpression -->
<g id="node8" class="node">
<title>ScRepCombiningExpression</title>
<path fill="none" stroke="black" d="M188.88,-108C188.88,-108 41.62,-108 41.62,-108 35.62,-108 29.62,-102 29.62,-96 29.62,-96 29.62,-84 29.62,-84 29.62,-78 35.62,-72 41.62,-72 41.62,-72 188.88,-72 188.88,-72 194.88,-72 200.88,-78 200.88,-84 200.88,-84 200.88,-96 200.88,-96 200.88,-102 194.88,-108 188.88,-108"/>
<text xml:space="preserve" text-anchor="middle" x="115.25" y="-85.72" font-family="Helvetica,sans-Serif" font-size="12.00">ScRepCombiningExpression</text>
</g>
<!-- SeuratClustering&#45;&gt;ScRepCombiningExpression -->
<g id="edge9" class="edge">
<title>SeuratClustering&#45;&gt;ScRepCombiningExpression</title>
<path fill="none" stroke="black" d="M189.52,-143.52C176.67,-134.43 160.81,-123.22 147.06,-113.49"/>
<polygon fill="black" stroke="black" points="149.05,-111.47 140.9,-109.13 145.81,-116.04 149.05,-111.47"/>
</g>
<!-- ClusterMarkers -->
<g id="node10" class="node">
<title>ClusterMarkers</title>
<g id="a_node10"><a xlink:title="Markers for clusters of all or selected T/B cells.">
<polygon fill="none" stroke="black" points="315.75,-108 218.75,-108 218.75,-72 315.75,-72 315.75,-108"/>
<text xml:space="preserve" text-anchor="middle" x="267.25" y="-85.72" font-family="Helvetica,sans-Serif" font-size="12.00">ClusterMarkers</text>
</a>
</g>
</g>
<!-- SeuratClustering&#45;&gt;ClusterMarkers -->
<g id="edge13" class="edge">
<title>SeuratClustering&#45;&gt;ClusterMarkers</title>
<path fill="none" stroke="black" d="M227.35,-143.7C233.77,-135.22 241.61,-124.86 248.64,-115.58"/>
<polygon fill="black" stroke="black" points="250.79,-117.38 253.39,-109.31 246.32,-114 250.79,-117.38"/>
</g>
<!-- ModuleScoreCalculator -->
<g id="node3" class="node">
<title>ModuleScoreCalculator</title>
<g id="a_node3"><a xlink:title="Calculate the module scores for each cell">
<path fill="none" stroke="black" d="M273.25,-252C273.25,-252 155.25,-252 155.25,-252 149.25,-252 143.25,-246 143.25,-240 143.25,-240 143.25,-228 143.25,-228 143.25,-222 149.25,-216 155.25,-216 155.25,-216 273.25,-216 273.25,-216 279.25,-216 285.25,-222 285.25,-228 285.25,-228 285.25,-240 285.25,-240 285.25,-246 279.25,-252 273.25,-252"/>
<text xml:space="preserve" text-anchor="middle" x="214.25" y="-229.72" font-family="Helvetica,sans-Serif" font-size="12.00">ModuleScoreCalculator</text>
</a>
</g>
</g>
<!-- ModuleScoreCalculator&#45;&gt;SeuratClustering -->
<g id="edge5" class="edge">
<title>ModuleScoreCalculator&#45;&gt;SeuratClustering</title>
<path fill="none" stroke="black" d="M214.25,-215.7C214.25,-207.81 214.25,-198.3 214.25,-189.55"/>
<polygon fill="black" stroke="black" points="217.05,-189.62 214.25,-181.62 211.45,-189.62 217.05,-189.62"/>
</g>
<!-- ClusterMarkersOfAllCells -->
<g id="node4" class="node">
<title>ClusterMarkersOfAllCells</title>
<g id="a_node4"><a xlink:title="Markers for clusters of all cells.">
<polygon fill="none" stroke="black" points="434.75,-324 283.75,-324 283.75,-288 434.75,-288 434.75,-324"/>
<text xml:space="preserve" text-anchor="middle" x="359.25" y="-301.73" font-family="Helvetica,sans-Serif" font-size="12.00">ClusterMarkersOfAllCells</text>
</a>
</g>
</g>
<!-- ClonalStats -->
<g id="node5" class="node">
<title>ClonalStats</title>
<polygon fill="none" stroke="black" points="212.38,-36 134.12,-36 134.12,0 212.38,0 212.38,-36"/>
<text xml:space="preserve" text-anchor="middle" x="173.25" y="-13.72" font-family="Helvetica,sans-Serif" font-size="12.00">ClonalStats</text>
</g>
<!-- SeuratClusteringOfAllCells -->
<g id="node6" class="node">
<title>SeuratClusteringOfAllCells</title>
<g id="a_node6"><a xlink:title="Cluster all cells, including T cells/non&#45;T cells and B cells/non&#45;Bcells using Seurat.">
<path fill="none" stroke="black" d="M372.25,-396C372.25,-396 236.25,-396 236.25,-396 230.25,-396 224.25,-390 224.25,-384 224.25,-384 224.25,-372 224.25,-372 224.25,-366 230.25,-360 236.25,-360 236.25,-360 372.25,-360 372.25,-360 378.25,-360 384.25,-366 384.25,-372 384.25,-372 384.25,-384 384.25,-384 384.25,-390 378.25,-396 372.25,-396"/>
<text xml:space="preserve" text-anchor="middle" x="304.25" y="-373.73" font-family="Helvetica,sans-Serif" font-size="12.00">SeuratClusteringOfAllCells</text>
</a>
</g>
</g>
<!-- SeuratClusteringOfAllCells&#45;&gt;ClusterMarkersOfAllCells -->
<g id="edge1" class="edge">
<title>SeuratClusteringOfAllCells&#45;&gt;ClusterMarkersOfAllCells</title>
<path fill="none" stroke="black" d="M317.85,-359.7C324.51,-351.22 332.64,-340.86 339.94,-331.58"/>
<polygon fill="black" stroke="black" points="342.13,-333.31 344.88,-325.29 337.73,-329.86 342.13,-333.31"/>
</g>
<!-- TOrBCellSelection -->
<g id="node11" class="node">
<title>TOrBCellSelection</title>
<g id="a_node11"><a xlink:title="Separate T and non&#45;T cells and select T cells; or separate B and non&#45;B cells and select B cells.">
<path fill="none" stroke="black" d="M253.5,-324C253.5,-324 161,-324 161,-324 155,-324 149,-318 149,-312 149,-312 149,-300 149,-300 149,-294 155,-288 161,-288 161,-288 253.5,-288 253.5,-288 259.5,-288 265.5,-294 265.5,-300 265.5,-300 265.5,-312 265.5,-312 265.5,-318 259.5,-324 253.5,-324"/>
<text xml:space="preserve" text-anchor="middle" x="207.25" y="-301.73" font-family="Helvetica,sans-Serif" font-size="12.00">TOrBCellSelection</text>
</a>
</g>
</g>
<!-- SeuratClusteringOfAllCells&#45;&gt;TOrBCellSelection -->
<g id="edge4" class="edge">
<title>SeuratClusteringOfAllCells&#45;&gt;TOrBCellSelection</title>
<path fill="none" stroke="black" d="M280.27,-359.7C267.8,-350.69 252.39,-339.57 238.94,-329.87"/>
<polygon fill="black" stroke="black" points="240.64,-327.64 232.52,-325.23 237.36,-332.18 240.64,-327.64"/>
</g>
<!-- SampleInfo -->
<g id="node7" class="node">
<title>SampleInfo</title>
<g id="a_node7"><a xlink:title="List sample information and perform statistics">
<polygon fill="none" stroke="black" points="231.25,-540 162.22,-522 231.25,-504 300.28,-522 231.25,-540"/>
<text xml:space="preserve" text-anchor="middle" x="231.25" y="-517.73" font-family="Helvetica,sans-Serif" font-size="12.00">SampleInfo</text>
</a>
</g>
</g>
<!-- ScRepLoading -->
<g id="node9" class="node">
<title>ScRepLoading</title>
<g id="a_node9"><a xlink:title="Load the single cell TCR/BCR data into a `scRepertoire` compatible object">
<path fill="none" stroke="black" d="M194.38,-396C194.38,-396 122.12,-396 122.12,-396 116.12,-396 110.12,-390 110.12,-384 110.12,-384 110.12,-372 110.12,-372 110.12,-366 116.12,-360 122.12,-360 122.12,-360 194.38,-360 194.38,-360 200.38,-360 206.38,-366 206.38,-372 206.38,-372 206.38,-384 206.38,-384 206.38,-390 200.38,-396 194.38,-396"/>
<text xml:space="preserve" text-anchor="middle" x="158.25" y="-373.73" font-family="Helvetica,sans-Serif" font-size="12.00">ScRepLoading</text>
</a>
</g>
</g>
<!-- SampleInfo&#45;&gt;ScRepLoading -->
<g id="edge3" class="edge">
<title>SampleInfo&#45;&gt;ScRepLoading</title>
<path fill="none" stroke="black" d="M223.44,-505.8C210.98,-481.58 186.49,-433.94 171.33,-404.45"/>
<polygon fill="black" stroke="black" points="173.98,-403.47 167.83,-397.63 169,-406.03 173.98,-403.47"/>
</g>
<!-- SeuratPreparing -->
<g id="node12" class="node">
<title>SeuratPreparing</title>
<g id="a_node12"><a xlink:title="Load, prepare and apply QC to data, using `Seurat`">
<path fill="none" stroke="black" d="M327.12,-468C327.12,-468 247.38,-468 247.38,-468 241.38,-468 235.38,-462 235.38,-456 235.38,-456 235.38,-444 235.38,-444 235.38,-438 241.38,-432 247.38,-432 247.38,-432 327.12,-432 327.12,-432 333.12,-432 339.12,-438 339.12,-444 339.12,-444 339.12,-456 339.12,-456 339.12,-462 333.12,-468 327.12,-468"/>
<text xml:space="preserve" text-anchor="middle" x="287.25" y="-445.73" font-family="Helvetica,sans-Serif" font-size="12.00">SeuratPreparing</text>
</a>
</g>
</g>
<!-- SampleInfo&#45;&gt;SeuratPreparing -->
<g id="edge2" class="edge">
<title>SampleInfo&#45;&gt;SeuratPreparing</title>
<path fill="none" stroke="black" d="M242.58,-506.83C249.73,-497.9 259.16,-486.11 267.51,-475.67"/>
<polygon fill="black" stroke="black" points="269.6,-477.55 272.41,-469.55 265.23,-474.05 269.6,-477.55"/>
</g>
<!-- ScRepCombiningExpression&#45;&gt;SeuratClusterStats -->
<g id="edge10" class="edge">
<title>ScRepCombiningExpression&#45;&gt;SeuratClusterStats</title>
<path fill="none" stroke="black" d="M101.16,-71.7C94.19,-63.14 85.66,-52.66 78.04,-43.3"/>
<polygon fill="black" stroke="black" points="80.36,-41.71 73.13,-37.28 76.01,-45.25 80.36,-41.71"/>
</g>
<!-- ScRepCombiningExpression&#45;&gt;ClonalStats -->
<g id="edge6" class="edge">
<title>ScRepCombiningExpression&#45;&gt;ClonalStats</title>
<path fill="none" stroke="black" d="M129.59,-71.7C136.68,-63.14 145.36,-52.66 153.11,-43.3"/>
<polygon fill="black" stroke="black" points="155.16,-45.22 158.11,-37.27 150.85,-41.64 155.16,-45.22"/>
</g>
<!-- ScRepLoading&#45;&gt;ScRepCombiningExpression -->
<g id="edge8" class="edge">
<title>ScRepLoading&#45;&gt;ScRepCombiningExpression</title>
<path fill="none" stroke="black" d="M151.26,-359.61C147.43,-349.4 142.93,-336.15 140.25,-324 124.03,-250.47 118.19,-161.47 116.21,-117.81"/>
<polygon fill="black" stroke="black" points="119.01,-117.84 115.87,-109.97 113.42,-118.08 119.01,-117.84"/>
</g>
<!-- ScRepLoading&#45;&gt;TOrBCellSelection -->
<g id="edge7" class="edge">
<title>ScRepLoading&#45;&gt;TOrBCellSelection</title>
<path fill="none" stroke="black" d="M170.36,-359.7C176.24,-351.3 183.4,-341.07 189.85,-331.86"/>
<polygon fill="black" stroke="black" points="192.12,-333.5 194.41,-325.34 187.53,-330.29 192.12,-333.5"/>
</g>
<!-- TOrBCellSelection&#45;&gt;ModuleScoreCalculator -->
<g id="edge12" class="edge">
<title>TOrBCellSelection&#45;&gt;ModuleScoreCalculator</title>
<path fill="none" stroke="black" d="M208.98,-287.7C209.77,-279.81 210.72,-270.3 211.6,-261.55"/>
<polygon fill="black" stroke="black" points="214.38,-261.85 212.39,-253.61 208.81,-261.29 214.38,-261.85"/>
</g>
<!-- SeuratPreparing&#45;&gt;SeuratClusteringOfAllCells -->
<g id="edge11" class="edge">
<title>SeuratPreparing&#45;&gt;SeuratClusteringOfAllCells</title>
<path fill="none" stroke="black" d="M291.45,-431.7C293.39,-423.73 295.73,-414.1 297.87,-405.26"/>
<polygon fill="black" stroke="black" points="300.57,-406.01 299.74,-397.58 295.13,-404.69 300.57,-406.01"/>
</g>
</g>
</svg>
