<?xml version="1.0" encoding="UTF-8" standalone="no"?>
<!DOCTYPE svg PUBLIC "-//W3C//DTD SVG 1.1//EN"
 "http://www.w3.org/Graphics/SVG/1.1/DTD/svg11.dtd">
<!-- Generated by graphviz version 12.2.1 (20250203.1708)
 -->
<!-- Title: Immunopipe Pages: 1 -->
<svg width="443pt" height="588pt"
 viewBox="0.00 0.00 442.75 587.50" xmlns="http://www.w3.org/2000/svg" xmlns:xlink="http://www.w3.org/1999/xlink">
<g id="graph0" class="graph" transform="scale(1 1) rotate(0) translate(4 583.5)">
<title>Immunopipe</title>
<polygon fill="white" stroke="none" points="-4,4 -4,-583.5 438.75,-583.5 438.75,4 -4,4"/>
<text text-anchor="middle" x="217.38" y="-562.2" font-family="Helvetica,sans-Serif" font-size="14.00">Immunopipe</text>
<text text-anchor="middle" x="217.38" y="-546.45" font-family="Helvetica,sans-Serif" font-size="14.00"> </text>
<!-- ClusterMarkersOfAllCells -->
<g id="node1" class="node">
<title>ClusterMarkersOfAllCells</title>
<g id="a_node1"><a xlink:title="Markers for clusters of all cells.">
<polygon fill="none" stroke="black" points="151,-324 0,-324 0,-288 151,-288 151,-324"/>
<text text-anchor="middle" x="75.5" y="-301.73" font-family="Helvetica,sans-Serif" font-size="12.00">ClusterMarkersOfAllCells</text>
</a>
</g>
</g>
<!-- TOrBCellSelection -->
<g id="node2" class="node">
<title>TOrBCellSelection</title>
<g id="a_node2"><a xlink:title="Separate T and non&#45;T cells and select T cells; or separate B and non&#45;B cells and select B cells.">
<path fill="none" stroke="black" d="M273.75,-324C273.75,-324 181.25,-324 181.25,-324 175.25,-324 169.25,-318 169.25,-312 169.25,-312 169.25,-300 169.25,-300 169.25,-294 175.25,-288 181.25,-288 181.25,-288 273.75,-288 273.75,-288 279.75,-288 285.75,-294 285.75,-300 285.75,-300 285.75,-312 285.75,-312 285.75,-318 279.75,-324 273.75,-324"/>
<text text-anchor="middle" x="227.5" y="-301.73" font-family="Helvetica,sans-Serif" font-size="12.00">TOrBCellSelection</text>
</a>
</g>
</g>
<!-- ModuleScoreCalculator -->
<g id="node10" class="node">
<title>ModuleScoreCalculator</title>
<g id="a_node10"><a xlink:title="Calculate the module scores for each cell">
<path fill="none" stroke="black" d="M279.5,-252C279.5,-252 161.5,-252 161.5,-252 155.5,-252 149.5,-246 149.5,-240 149.5,-240 149.5,-228 149.5,-228 149.5,-222 155.5,-216 161.5,-216 161.5,-216 279.5,-216 279.5,-216 285.5,-216 291.5,-222 291.5,-228 291.5,-228 291.5,-240 291.5,-240 291.5,-246 285.5,-252 279.5,-252"/>
<text text-anchor="middle" x="220.5" y="-229.72" font-family="Helvetica,sans-Serif" font-size="12.00">ModuleScoreCalculator</text>
</a>
</g>
</g>
<!-- TOrBCellSelection&#45;&gt;ModuleScoreCalculator -->
<g id="edge10" class="edge">
<title>TOrBCellSelection&#45;&gt;ModuleScoreCalculator</title>
<path fill="none" stroke="black" d="M225.77,-287.7C224.98,-279.81 224.03,-270.3 223.15,-261.55"/>
<polygon fill="black" stroke="black" points="225.94,-261.29 222.36,-253.61 220.37,-261.85 225.94,-261.29"/>
</g>
<!-- SeuratClusteringOfAllCells -->
<g id="node3" class="node">
<title>SeuratClusteringOfAllCells</title>
<g id="a_node3"><a xlink:title="Cluster all cells, including T cells/non&#45;T cells and B cells/non&#45;Bcells using Seurat.">
<path fill="none" stroke="black" d="M195.5,-396C195.5,-396 59.5,-396 59.5,-396 53.5,-396 47.5,-390 47.5,-384 47.5,-384 47.5,-372 47.5,-372 47.5,-366 53.5,-360 59.5,-360 59.5,-360 195.5,-360 195.5,-360 201.5,-360 207.5,-366 207.5,-372 207.5,-372 207.5,-384 207.5,-384 207.5,-390 201.5,-396 195.5,-396"/>
<text text-anchor="middle" x="127.5" y="-373.73" font-family="Helvetica,sans-Serif" font-size="12.00">SeuratClusteringOfAllCells</text>
</a>
</g>
</g>
<!-- SeuratClusteringOfAllCells&#45;&gt;ClusterMarkersOfAllCells -->
<g id="edge8" class="edge">
<title>SeuratClusteringOfAllCells&#45;&gt;ClusterMarkersOfAllCells</title>
<path fill="none" stroke="black" d="M114.65,-359.7C108.35,-351.22 100.66,-340.86 93.76,-331.58"/>
<polygon fill="black" stroke="black" points="96.13,-330.07 89.11,-325.32 91.63,-333.41 96.13,-330.07"/>
</g>
<!-- SeuratClusteringOfAllCells&#45;&gt;TOrBCellSelection -->
<g id="edge13" class="edge">
<title>SeuratClusteringOfAllCells&#45;&gt;TOrBCellSelection</title>
<path fill="none" stroke="black" d="M152.48,-359.52C165.46,-350.43 181.48,-339.22 195.37,-329.49"/>
<polygon fill="black" stroke="black" points="196.65,-332.01 201.6,-325.13 193.44,-327.42 196.65,-332.01"/>
</g>
<!-- ClonalStats -->
<g id="node4" class="node">
<title>ClonalStats</title>
<polygon fill="none" stroke="black" points="300.62,-36 222.38,-36 222.38,0 300.62,0 300.62,-36"/>
<text text-anchor="middle" x="261.5" y="-13.72" font-family="Helvetica,sans-Serif" font-size="12.00">ClonalStats</text>
</g>
<!-- ClusterMarkers -->
<g id="node5" class="node">
<title>ClusterMarkers</title>
<g id="a_node5"><a xlink:title="Markers for clusters of all or selected T/B cells.">
<polygon fill="none" stroke="black" points="216,-108 119,-108 119,-72 216,-72 216,-108"/>
<text text-anchor="middle" x="167.5" y="-85.72" font-family="Helvetica,sans-Serif" font-size="12.00">ClusterMarkers</text>
</a>
</g>
</g>
<!-- SampleInfo -->
<g id="node6" class="node">
<title>SampleInfo</title>
<g id="a_node6"><a xlink:title="List sample information and perform statistics">
<polygon fill="none" stroke="black" points="200.5,-540 131.47,-522 200.5,-504 269.53,-522 200.5,-540"/>
<text text-anchor="middle" x="200.5" y="-517.73" font-family="Helvetica,sans-Serif" font-size="12.00">SampleInfo</text>
</a>
</g>
</g>
<!-- SeuratPreparing -->
<g id="node8" class="node">
<title>SeuratPreparing</title>
<g id="a_node8"><a xlink:title="Load, prepare and apply QC to data, using `Seurat`">
<path fill="none" stroke="black" d="M200.38,-468C200.38,-468 120.62,-468 120.62,-468 114.62,-468 108.62,-462 108.62,-456 108.62,-456 108.62,-444 108.62,-444 108.62,-438 114.62,-432 120.62,-432 120.62,-432 200.38,-432 200.38,-432 206.38,-432 212.38,-438 212.38,-444 212.38,-444 212.38,-456 212.38,-456 212.38,-462 206.38,-468 200.38,-468"/>
<text text-anchor="middle" x="160.5" y="-445.73" font-family="Helvetica,sans-Serif" font-size="12.00">SeuratPreparing</text>
</a>
</g>
</g>
<!-- SampleInfo&#45;&gt;SeuratPreparing -->
<g id="edge7" class="edge">
<title>SampleInfo&#45;&gt;SeuratPreparing</title>
<path fill="none" stroke="black" d="M191.82,-505.81C186.87,-497.14 180.53,-486.05 174.85,-476.12"/>
<polygon fill="black" stroke="black" points="177.44,-475 171.04,-469.44 172.58,-477.78 177.44,-475"/>
</g>
<!-- ScRepLoading -->
<g id="node11" class="node">
<title>ScRepLoading</title>
<g id="a_node11"><a xlink:title="Load the single cell TCR/BCR data into a `scRepertoire` compatible object">
<path fill="none" stroke="black" d="M309.62,-396C309.62,-396 237.38,-396 237.38,-396 231.38,-396 225.38,-390 225.38,-384 225.38,-384 225.38,-372 225.38,-372 225.38,-366 231.38,-360 237.38,-360 237.38,-360 309.62,-360 309.62,-360 315.62,-360 321.62,-366 321.62,-372 321.62,-372 321.62,-384 321.62,-384 321.62,-390 315.62,-396 309.62,-396"/>
<text text-anchor="middle" x="273.5" y="-373.73" font-family="Helvetica,sans-Serif" font-size="12.00">ScRepLoading</text>
</a>
</g>
</g>
<!-- SampleInfo&#45;&gt;ScRepLoading -->
<g id="edge2" class="edge">
<title>SampleInfo&#45;&gt;ScRepLoading</title>
<path fill="none" stroke="black" d="M208.31,-505.8C220.77,-481.58 245.26,-433.94 260.42,-404.45"/>
<polygon fill="black" stroke="black" points="262.75,-406.03 263.92,-397.63 257.77,-403.47 262.75,-406.03"/>
</g>
<!-- ScRepCombiningExpression -->
<g id="node7" class="node">
<title>ScRepCombiningExpression</title>
<path fill="none" stroke="black" d="M393.12,-108C393.12,-108 245.88,-108 245.88,-108 239.88,-108 233.88,-102 233.88,-96 233.88,-96 233.88,-84 233.88,-84 233.88,-78 239.88,-72 245.88,-72 245.88,-72 393.12,-72 393.12,-72 399.12,-72 405.12,-78 405.12,-84 405.12,-84 405.12,-96 405.12,-96 405.12,-102 399.12,-108 393.12,-108"/>
<text text-anchor="middle" x="319.5" y="-85.72" font-family="Helvetica,sans-Serif" font-size="12.00">ScRepCombiningExpression</text>
</g>
<!-- ScRepCombiningExpression&#45;&gt;ClonalStats -->
<g id="edge1" class="edge">
<title>ScRepCombiningExpression&#45;&gt;ClonalStats</title>
<path fill="none" stroke="black" d="M305.16,-71.7C298.07,-63.14 289.39,-52.66 281.64,-43.3"/>
<polygon fill="black" stroke="black" points="283.9,-41.64 276.64,-37.27 279.59,-45.22 283.9,-41.64"/>
</g>
<!-- SeuratClusterStats -->
<g id="node9" class="node">
<title>SeuratClusterStats</title>
<polygon fill="none" stroke="black" points="434.75,-36 318.25,-36 318.25,0 434.75,0 434.75,-36"/>
<text text-anchor="middle" x="376.5" y="-13.72" font-family="Helvetica,sans-Serif" font-size="12.00">SeuratClusterStats</text>
</g>
<!-- ScRepCombiningExpression&#45;&gt;SeuratClusterStats -->
<g id="edge11" class="edge">
<title>ScRepCombiningExpression&#45;&gt;SeuratClusterStats</title>
<path fill="none" stroke="black" d="M333.59,-71.7C340.56,-63.14 349.09,-52.66 356.71,-43.3"/>
<polygon fill="black" stroke="black" points="358.74,-45.25 361.62,-37.28 354.39,-41.71 358.74,-45.25"/>
</g>
<!-- SeuratPreparing&#45;&gt;SeuratClusteringOfAllCells -->
<g id="edge6" class="edge">
<title>SeuratPreparing&#45;&gt;SeuratClusteringOfAllCells</title>
<path fill="none" stroke="black" d="M152.34,-431.7C148.51,-423.56 143.85,-413.69 139.62,-404.7"/>
<polygon fill="black" stroke="black" points="142.15,-403.52 136.21,-397.47 137.09,-405.9 142.15,-403.52"/>
</g>
<!-- SeuratClustering -->
<g id="node12" class="node">
<title>SeuratClustering</title>
<g id="a_node12"><a xlink:title="Cluster all cells or selected T/B cells selected by `TOrBCellSelection`.">
<path fill="none" stroke="black" d="M261.5,-180C261.5,-180 179.5,-180 179.5,-180 173.5,-180 167.5,-174 167.5,-168 167.5,-168 167.5,-156 167.5,-156 167.5,-150 173.5,-144 179.5,-144 179.5,-144 261.5,-144 261.5,-144 267.5,-144 273.5,-150 273.5,-156 273.5,-156 273.5,-168 273.5,-168 273.5,-174 267.5,-180 261.5,-180"/>
<text text-anchor="middle" x="220.5" y="-157.72" font-family="Helvetica,sans-Serif" font-size="12.00">SeuratClustering</text>
</a>
</g>
</g>
<!-- ModuleScoreCalculator&#45;&gt;SeuratClustering -->
<g id="edge3" class="edge">
<title>ModuleScoreCalculator&#45;&gt;SeuratClustering</title>
<path fill="none" stroke="black" d="M220.5,-215.7C220.5,-207.81 220.5,-198.3 220.5,-189.55"/>
<polygon fill="black" stroke="black" points="223.3,-189.62 220.5,-181.62 217.7,-189.62 223.3,-189.62"/>
</g>
<!-- ScRepLoading&#45;&gt;TOrBCellSelection -->
<g id="edge12" class="edge">
<title>ScRepLoading&#45;&gt;TOrBCellSelection</title>
<path fill="none" stroke="black" d="M262.13,-359.7C256.61,-351.3 249.89,-341.07 243.84,-331.86"/>
<polygon fill="black" stroke="black" points="246.3,-330.52 239.57,-325.37 241.62,-333.59 246.3,-330.52"/>
</g>
<!-- ScRepLoading&#45;&gt;ScRepCombiningExpression -->
<g id="edge5" class="edge">
<title>ScRepLoading&#45;&gt;ScRepCombiningExpression</title>
<path fill="none" stroke="black" d="M281.72,-359.72C286.21,-349.55 291.46,-336.3 294.5,-324 312.6,-250.71 317.59,-161.26 318.97,-117.58"/>
<polygon fill="black" stroke="black" points="321.77,-117.82 319.19,-109.74 316.17,-117.66 321.77,-117.82"/>
</g>
<!-- SeuratClustering&#45;&gt;ClusterMarkers -->
<g id="edge4" class="edge">
<title>SeuratClustering&#45;&gt;ClusterMarkers</title>
<path fill="none" stroke="black" d="M207.4,-143.7C200.98,-135.22 193.14,-124.86 186.11,-115.58"/>
<polygon fill="black" stroke="black" points="188.43,-114 181.36,-109.31 183.96,-117.38 188.43,-114"/>
</g>
<!-- SeuratClustering&#45;&gt;ScRepCombiningExpression -->
<g id="edge9" class="edge">
<title>SeuratClustering&#45;&gt;ScRepCombiningExpression</title>
<path fill="none" stroke="black" d="M245.23,-143.52C258.08,-134.43 273.94,-123.22 287.69,-113.49"/>
<polygon fill="black" stroke="black" points="288.94,-116.04 293.85,-109.13 285.7,-111.47 288.94,-116.04"/>
</g>
</g>
</svg>
