<?xml version="1.0" encoding="UTF-8" standalone="no"?>
<!DOCTYPE svg PUBLIC "-//W3C//DTD SVG 1.1//EN"
 "http://www.w3.org/Graphics/SVG/1.1/DTD/svg11.dtd">
<!-- Generated by graphviz version 3.0.0 (20220315.2325)
 -->
<!-- Title: Immunopipe Pages: 1 -->
<svg width="410pt" height="586pt"
 viewBox="0.00 0.00 410.00 586.00" xmlns="http://www.w3.org/2000/svg" xmlns:xlink="http://www.w3.org/1999/xlink">
<g id="graph0" class="graph" transform="scale(1 1) rotate(0) translate(4 582)">
<title>Immunopipe</title>
<polygon fill="white" stroke="transparent" points="-4,4 -4,-582 406,-582 406,4 -4,4"/>
<text text-anchor="middle" x="201" y="-562.8" font-family="Helvetica,sans-Serif" font-size="14.00">Immunopipe</text>
<text text-anchor="middle" x="201" y="-547.8" font-family="Helvetica,sans-Serif" font-size="14.00"> </text>
<!-- ClusterMarkersOfAllCells -->
<g id="node1" class="node">
<title>ClusterMarkersOfAllCells</title>
<g id="a_node1"><a xlink:title="Markers for clusters of all cells.">
<polygon fill="none" stroke="black" points="152,-324 0,-324 0,-288 152,-288 152,-324"/>
<text text-anchor="middle" x="76" y="-302.9" font-family="Helvetica,sans-Serif" font-size="12.00">ClusterMarkersOfAllCells</text>
</a>
</g>
</g>
<!-- SeuratPreparing -->
<g id="node2" class="node">
<title>SeuratPreparing</title>
<g id="a_node2"><a xlink:title="Load, prepare and apply QC to data, using `Seurat`">
<path fill="none" stroke="black" d="M227,-468C227,-468 147,-468 147,-468 141,-468 135,-462 135,-456 135,-456 135,-444 135,-444 135,-438 141,-432 147,-432 147,-432 227,-432 227,-432 233,-432 239,-438 239,-444 239,-444 239,-456 239,-456 239,-462 233,-468 227,-468"/>
<text text-anchor="middle" x="187" y="-446.9" font-family="Helvetica,sans-Serif" font-size="12.00">SeuratPreparing</text>
</a>
</g>
</g>
<!-- SeuratClusteringOfAllCells -->
<g id="node9" class="node">
<title>SeuratClusteringOfAllCells</title>
<g id="a_node9"><a xlink:title="Cluster all cells, including T cells and non&#45;T cells using Seurat">
<path fill="none" stroke="black" d="M216.5,-396C216.5,-396 79.5,-396 79.5,-396 73.5,-396 67.5,-390 67.5,-384 67.5,-384 67.5,-372 67.5,-372 67.5,-366 73.5,-360 79.5,-360 79.5,-360 216.5,-360 216.5,-360 222.5,-360 228.5,-366 228.5,-372 228.5,-372 228.5,-384 228.5,-384 228.5,-390 222.5,-396 216.5,-396"/>
<text text-anchor="middle" x="148" y="-374.9" font-family="Helvetica,sans-Serif" font-size="12.00">SeuratClusteringOfAllCells</text>
</a>
</g>
</g>
<!-- SeuratPreparing&#45;&gt;SeuratClusteringOfAllCells -->
<g id="edge6" class="edge">
<title>SeuratPreparing&#45;&gt;SeuratClusteringOfAllCells</title>
<path fill="none" stroke="black" d="M177.36,-431.7C172.59,-423.14 166.75,-412.66 161.54,-403.3"/>
<polygon fill="black" stroke="black" points="163.87,-401.73 157.53,-396.1 158.98,-404.46 163.87,-401.73"/>
</g>
<!-- SeuratClusterStats -->
<g id="node3" class="node">
<title>SeuratClusterStats</title>
<polygon fill="none" stroke="black" points="307.5,-36 190.5,-36 190.5,0 307.5,0 307.5,-36"/>
<text text-anchor="middle" x="249" y="-14.9" font-family="Helvetica,sans-Serif" font-size="12.00">SeuratClusterStats</text>
</g>
<!-- ModuleScoreCalculator -->
<g id="node4" class="node">
<title>ModuleScoreCalculator</title>
<g id="a_node4"><a xlink:title="Calculate the module scores for each cell">
<path fill="none" stroke="black" d="M265.5,-252C265.5,-252 146.5,-252 146.5,-252 140.5,-252 134.5,-246 134.5,-240 134.5,-240 134.5,-228 134.5,-228 134.5,-222 140.5,-216 146.5,-216 146.5,-216 265.5,-216 265.5,-216 271.5,-216 277.5,-222 277.5,-228 277.5,-228 277.5,-240 277.5,-240 277.5,-246 271.5,-252 265.5,-252"/>
<text text-anchor="middle" x="206" y="-230.9" font-family="Helvetica,sans-Serif" font-size="12.00">ModuleScoreCalculator</text>
</a>
</g>
</g>
<!-- SeuratClustering -->
<g id="node7" class="node">
<title>SeuratClustering</title>
<g id="a_node7"><a xlink:title="Cluster all T cells or selected T cells selected by `TCellSelection`.">
<path fill="none" stroke="black" d="M247.5,-180C247.5,-180 164.5,-180 164.5,-180 158.5,-180 152.5,-174 152.5,-168 152.5,-168 152.5,-156 152.5,-156 152.5,-150 158.5,-144 164.5,-144 164.5,-144 247.5,-144 247.5,-144 253.5,-144 259.5,-150 259.5,-156 259.5,-156 259.5,-168 259.5,-168 259.5,-174 253.5,-180 247.5,-180"/>
<text text-anchor="middle" x="206" y="-158.9" font-family="Helvetica,sans-Serif" font-size="12.00">SeuratClustering</text>
</a>
</g>
</g>
<!-- ModuleScoreCalculator&#45;&gt;SeuratClustering -->
<g id="edge8" class="edge">
<title>ModuleScoreCalculator&#45;&gt;SeuratClustering</title>
<path fill="none" stroke="black" d="M206,-215.7C206,-207.39 206,-197.28 206,-188.14"/>
<polygon fill="black" stroke="black" points="208.8,-188.1 206,-180.1 203.2,-188.1 208.8,-188.1"/>
</g>
<!-- Immunarch -->
<g id="node5" class="node">
<title>Immunarch</title>
<g id="a_node5"><a xlink:title="Exploration of Single&#45;cell and Bulk T&#45;cell/Antibody Immune Repertoires">
<polygon fill="none" stroke="black" points="402,-36 326,-36 326,0 402,0 402,-36"/>
<text text-anchor="middle" x="364" y="-14.9" font-family="Helvetica,sans-Serif" font-size="12.00">Immunarch</text>
</a>
</g>
</g>
<!-- TCellSelection -->
<g id="node6" class="node">
<title>TCellSelection</title>
<path fill="none" stroke="black" d="M254,-324C254,-324 182,-324 182,-324 176,-324 170,-318 170,-312 170,-312 170,-300 170,-300 170,-294 176,-288 182,-288 182,-288 254,-288 254,-288 260,-288 266,-294 266,-300 266,-300 266,-312 266,-312 266,-318 260,-324 254,-324"/>
<text text-anchor="middle" x="218" y="-302.9" font-family="Helvetica,sans-Serif" font-size="12.00">TCellSelection</text>
</g>
<!-- TCellSelection&#45;&gt;ModuleScoreCalculator -->
<g id="edge12" class="edge">
<title>TCellSelection&#45;&gt;ModuleScoreCalculator</title>
<path fill="none" stroke="black" d="M215.03,-287.7C213.61,-279.39 211.88,-269.28 210.31,-260.14"/>
<polygon fill="black" stroke="black" points="213.04,-259.52 208.93,-252.1 207.52,-260.46 213.04,-259.52"/>
</g>
<!-- ClusterMarkers -->
<g id="node8" class="node">
<title>ClusterMarkers</title>
<g id="a_node8"><a xlink:title="Markers for clusters of all or selected T cells.">
<polygon fill="none" stroke="black" points="220,-108 122,-108 122,-72 220,-72 220,-108"/>
<text text-anchor="middle" x="171" y="-86.9" font-family="Helvetica,sans-Serif" font-size="12.00">ClusterMarkers</text>
</a>
</g>
</g>
<!-- SeuratClustering&#45;&gt;ClusterMarkers -->
<g id="edge10" class="edge">
<title>SeuratClustering&#45;&gt;ClusterMarkers</title>
<path fill="none" stroke="black" d="M197.35,-143.7C193.07,-135.14 187.83,-124.66 183.15,-115.3"/>
<polygon fill="black" stroke="black" points="185.63,-114.01 179.55,-108.1 180.63,-116.51 185.63,-114.01"/>
</g>
<!-- IntegratingTCR -->
<g id="node10" class="node">
<title>IntegratingTCR</title>
<g id="a_node10"><a xlink:title="Attach TCR clone information as meta columns to Seurat object">
<path fill="none" stroke="black" d="M324,-108C324,-108 250,-108 250,-108 244,-108 238,-102 238,-96 238,-96 238,-84 238,-84 238,-78 244,-72 250,-72 250,-72 324,-72 324,-72 330,-72 336,-78 336,-84 336,-84 336,-96 336,-96 336,-102 330,-108 324,-108"/>
<text text-anchor="middle" x="287" y="-86.9" font-family="Helvetica,sans-Serif" font-size="12.00">IntegratingTCR</text>
</a>
</g>
</g>
<!-- SeuratClustering&#45;&gt;IntegratingTCR -->
<g id="edge11" class="edge">
<title>SeuratClustering&#45;&gt;IntegratingTCR</title>
<path fill="none" stroke="black" d="M226.02,-143.7C236.62,-134.54 249.75,-123.19 261.11,-113.38"/>
<polygon fill="black" stroke="black" points="262.99,-115.45 267.21,-108.1 259.32,-111.22 262.99,-115.45"/>
</g>
<!-- SeuratClusteringOfAllCells&#45;&gt;ClusterMarkersOfAllCells -->
<g id="edge7" class="edge">
<title>SeuratClusteringOfAllCells&#45;&gt;ClusterMarkersOfAllCells</title>
<path fill="none" stroke="black" d="M130.2,-359.7C120.96,-350.71 109.55,-339.61 99.58,-329.92"/>
<polygon fill="black" stroke="black" points="101.28,-327.67 93.59,-324.1 97.38,-331.69 101.28,-327.67"/>
</g>
<!-- SeuratClusteringOfAllCells&#45;&gt;TCellSelection -->
<g id="edge9" class="edge">
<title>SeuratClusteringOfAllCells&#45;&gt;TCellSelection</title>
<path fill="none" stroke="black" d="M165.3,-359.7C174.29,-350.71 185.39,-339.61 195.08,-329.92"/>
<polygon fill="black" stroke="black" points="197.22,-331.74 200.9,-324.1 193.26,-327.78 197.22,-331.74"/>
</g>
<!-- IntegratingTCR&#45;&gt;SeuratClusterStats -->
<g id="edge14" class="edge">
<title>IntegratingTCR&#45;&gt;SeuratClusterStats</title>
<path fill="none" stroke="black" d="M277.61,-71.7C272.96,-63.14 267.27,-52.66 262.19,-43.3"/>
<polygon fill="black" stroke="black" points="264.56,-41.8 258.29,-36.1 259.64,-44.47 264.56,-41.8"/>
</g>
<!-- IntegratingTCR&#45;&gt;Immunarch -->
<g id="edge2" class="edge">
<title>IntegratingTCR&#45;&gt;Immunarch</title>
<path fill="none" stroke="black" d="M306.03,-71.7C316.01,-62.63 328.36,-51.4 339.08,-41.65"/>
<polygon fill="black" stroke="black" points="341.15,-43.56 345.19,-36.1 337.38,-39.41 341.15,-43.56"/>
</g>
<!-- SampleInfo -->
<g id="node11" class="node">
<title>SampleInfo</title>
<g id="a_node11"><a xlink:title="List sample information and perform statistics">
<polygon fill="none" stroke="black" points="227,-540 159.93,-522 227,-504 294.07,-522 227,-540"/>
<text text-anchor="middle" x="227" y="-518.9" font-family="Helvetica,sans-Serif" font-size="12.00">SampleInfo</text>
</a>
</g>
</g>
<!-- SampleInfo&#45;&gt;SeuratPreparing -->
<g id="edge4" class="edge">
<title>SampleInfo&#45;&gt;SeuratPreparing</title>
<path fill="none" stroke="black" d="M218.52,-506.15C213.39,-497.18 206.72,-485.52 200.85,-475.23"/>
<polygon fill="black" stroke="black" points="203.14,-473.6 196.74,-468.04 198.28,-476.38 203.14,-473.6"/>
</g>
<!-- ImmunarchLoading -->
<g id="node12" class="node">
<title>ImmunarchLoading</title>
<g id="a_node12"><a xlink:title="Immuarch &#45; Loading data">
<path fill="none" stroke="black" d="M353.5,-396C353.5,-396 258.5,-396 258.5,-396 252.5,-396 246.5,-390 246.5,-384 246.5,-384 246.5,-372 246.5,-372 246.5,-366 252.5,-360 258.5,-360 258.5,-360 353.5,-360 353.5,-360 359.5,-360 365.5,-366 365.5,-372 365.5,-372 365.5,-384 365.5,-384 365.5,-390 359.5,-396 353.5,-396"/>
<text text-anchor="middle" x="306" y="-374.9" font-family="Helvetica,sans-Serif" font-size="12.00">ImmunarchLoading</text>
</a>
</g>
</g>
<!-- SampleInfo&#45;&gt;ImmunarchLoading -->
<g id="edge3" class="edge">
<title>SampleInfo&#45;&gt;ImmunarchLoading</title>
<path fill="none" stroke="black" d="M235.31,-506.07C248.89,-481.65 275.99,-432.94 292.41,-403.43"/>
<polygon fill="black" stroke="black" points="294.9,-404.72 296.34,-396.37 290,-402 294.9,-404.72"/>
</g>
<!-- ImmunarchLoading&#45;&gt;Immunarch -->
<g id="edge13" class="edge">
<title>ImmunarchLoading&#45;&gt;Immunarch</title>
<path fill="none" stroke="black" d="M318.02,-359.99C335.01,-334.23 364,-283.2 364,-235 364,-235 364,-235 364,-161 364,-120.11 364,-72.61 364,-44.22"/>
<polygon fill="black" stroke="black" points="366.8,-44.05 364,-36.05 361.2,-44.05 366.8,-44.05"/>
</g>
<!-- ImmunarchLoading&#45;&gt;TCellSelection -->
<g id="edge1" class="edge">
<title>ImmunarchLoading&#45;&gt;TCellSelection</title>
<path fill="none" stroke="black" d="M284.25,-359.7C272.63,-350.46 258.21,-338.98 245.79,-329.11"/>
<polygon fill="black" stroke="black" points="247.51,-326.89 239.5,-324.1 244.02,-331.28 247.51,-326.89"/>
</g>
<!-- ImmunarchLoading&#45;&gt;IntegratingTCR -->
<g id="edge5" class="edge">
<title>ImmunarchLoading&#45;&gt;IntegratingTCR</title>
<path fill="none" stroke="black" d="M304.87,-359.97C301.66,-311.7 292.5,-173.8 288.69,-116.47"/>
<polygon fill="black" stroke="black" points="291.47,-116.1 288.15,-108.31 285.89,-116.47 291.47,-116.1"/>
</g>
</g>
</svg>
